<?xml version="1.0" standalone="no"?>
<!DOCTYPE svg PUBLIC "-//W3C//DTD SVG 20010904//EN"
 "http://www.w3.org/TR/2001/REC-SVG-20010904/DTD/svg10.dtd">
<svg version="1.0" xmlns="http://www.w3.org/2000/svg"
 width="700.000000pt" height="700.000000pt" viewBox="0 0 700.000000 700.000000"
 preserveAspectRatio="xMidYMid meet">
<metadata>
Created by potrace 1.14, written by Peter Selinger 2001-2017
</metadata>
<g transform="translate(0.000000,700.000000) scale(0.100000,-0.100000)"
fill="#000000" stroke="none">
<path d="M0 3500 l0 -3500 3500 0 3500 0 0 3500 0 3500 -3500 0 -3500 0 0
-3500z m4662 3274 l178 -7 112 -216 c301 -583 410 -732 688 -942 485 -366 888
-944 1000 -1434 50 -222 60 -545 21 -725 -86 -406 -306 -769 -617 -1020 -79
-63 -222 -155 -230 -148 -2 3 25 125 60 271 36 146 74 312 85 369 47 248 52
538 11 730 -88 415 -374 828 -825 1189 -116 93 -338 255 -381 277 l-21 11 -7
-982 c-4 -540 -9 -1144 -12 -1342 l-5 -360 34 -40 c19 -22 60 -77 91 -123 319
-470 241 -974 -208 -1342 -243 -198 -555 -327 -936 -385 -142 -22 -523 -31
-687 -16 -755 69 -1449 380 -1754 784 -72 95 -108 165 -142 272 -121 385 30
619 469 729 437 110 925 58 1339 -144 142 -69 435 -261 360 -235 -182 62 -531
103 -769 90 -388 -20 -619 -105 -698 -258 -55 -107 -7 -270 112 -381 177 -163
483 -267 1000 -338 59 -8 195 -13 360 -13 228 0 282 3 385 22 449 82 710 265
817 573 93 270 -1 531 -296 825 -254 254 -630 498 -1108 722 -100 47 -185 87
-188 90 -6 6 40 -2 226 -38 366 -71 718 -193 1003 -348 52 -28 96 -49 98 -47
2 2 8 284 13 627 5 343 12 660 15 704 3 44 11 598 17 1230 5 633 12 1204 15
1269 l5 119 96 -6 c54 -4 177 -10 274 -13z m-2257 -3714 c823 -94 1549 -472
1777 -925 14 -27 38 -88 54 -135 25 -75 28 -100 28 -215 1 -127 0 -132 -32
-197 -62 -126 -212 -235 -402 -291 -512 -153 -1100 -74 -1570 211 -85 51 -213
143 -208 148 2 2 33 -6 68 -17 181 -56 531 -88 767 -70 336 26 536 99 628 230
28 40 30 48 30 134 0 82 -4 98 -29 147 -95 182 -365 325 -772 409 -267 55
-374 65 -679 65 -254 0 -304 -3 -406 -22 -381 -70 -640 -229 -758 -465 -49
-97 -81 -217 -81 -301 1 -381 392 -794 1131 -1195 96 -53 248 -129 337 -170
89 -41 160 -76 158 -78 -1 -2 -64 8 -139 21 -553 99 -1032 291 -1398 562 -126
92 -325 291 -395 394 -210 307 -259 620 -143 922 71 183 254 392 468 535 258
171 590 278 972 312 122 11 465 6 594 -9z"/>
</g>
</svg>
